<mxfile host="Electron" modified="2024-06-10T18:34:25.945Z" agent="Mozilla/5.0 (Macintosh; Intel Mac OS X 10_15_7) AppleWebKit/537.36 (KHTML, like Gecko) draw.io/24.5.1 Chrome/124.0.6367.207 Electron/30.0.6 Safari/537.36" etag="TUOONfkPA5DEMHqMsrJ8" version="24.5.1" type="device" pages="3">
  <diagram name="mapping" id="-CJQqSpR1AHRDQsbGXs3">
    <mxGraphModel dx="1434" dy="854" grid="1" gridSize="10" guides="1" tooltips="1" connect="1" arrows="1" fold="1" page="1" pageScale="1" pageWidth="850" pageHeight="1100" math="0" shadow="0">
      <root>
        <mxCell id="0" />
        <mxCell id="1" parent="0" />
        <mxCell id="yuC8ztW3-dCmG9XeEZeN-1" value="&lt;b&gt;&lt;font face=&quot;Courier New&quot;&gt;hset&lt;/font&gt;&lt;/b&gt;&lt;div style=&quot;text-align: left;&quot;&gt;&lt;font face=&quot;Courier New&quot;&gt;--keyspace actor&lt;/font&gt;&lt;/div&gt;&lt;div style=&quot;text-align: left;&quot;&gt;&lt;font face=&quot;Courier New&quot;&gt;--key id&lt;/font&gt;&lt;/div&gt;" style="shape=process;whiteSpace=wrap;html=1;backgroundOutline=1;fillColor=#f0a30a;strokeColor=#BD7000;fontFamily=Tahoma;fontColor=#FFFFFF;" parent="1" vertex="1">
          <mxGeometry x="360" y="240" width="160" height="80" as="geometry" />
        </mxCell>
        <mxCell id="yuC8ztW3-dCmG9XeEZeN-2" value="" style="endArrow=classic;html=1;rounded=0;entryX=0;entryY=0.5;entryDx=0;entryDy=0;fontSize=12;fontFamily=Tahoma;" parent="1" target="yuC8ztW3-dCmG9XeEZeN-1" edge="1">
          <mxGeometry width="50" height="50" relative="1" as="geometry">
            <mxPoint x="310" y="280" as="sourcePoint" />
            <mxPoint x="450" y="250" as="targetPoint" />
          </mxGeometry>
        </mxCell>
        <mxCell id="yuC8ztW3-dCmG9XeEZeN-10" value="&lt;div style=&quot;font-size: 12px;&quot;&gt;&lt;span style=&quot;font-family: &amp;quot;Courier New&amp;quot;; background-color: initial;&quot;&gt;id:&amp;nbsp; &amp;nbsp; 123&lt;/span&gt;&lt;br&gt;&lt;span style=&quot;font-family: &amp;quot;Courier New&amp;quot;; background-color: initial;&quot;&gt;first: Tom&lt;/span&gt;&lt;br&gt;&lt;span style=&quot;font-family: &amp;quot;Courier New&amp;quot;; background-color: initial;&quot;&gt;last:&amp;nbsp; Hanks&lt;/span&gt;&lt;br&gt;&lt;/div&gt;" style="edgeLabel;html=1;align=left;verticalAlign=middle;resizable=0;points=[];fontFamily=Tahoma;fontSize=12;labelBackgroundColor=none;" parent="yuC8ztW3-dCmG9XeEZeN-2" vertex="1" connectable="0">
          <mxGeometry x="0.4786" y="-1" relative="1" as="geometry">
            <mxPoint x="-127" y="-1" as="offset" />
          </mxGeometry>
        </mxCell>
        <mxCell id="yuC8ztW3-dCmG9XeEZeN-14" value="" style="endArrow=classic;html=1;rounded=0;fontSize=12;fontFamily=Tahoma;" parent="1" edge="1">
          <mxGeometry width="50" height="50" relative="1" as="geometry">
            <mxPoint x="520" y="279.5" as="sourcePoint" />
            <mxPoint x="560" y="280" as="targetPoint" />
          </mxGeometry>
        </mxCell>
        <mxCell id="yuC8ztW3-dCmG9XeEZeN-15" value="&lt;div style=&quot;text-align: left; font-size: 12px;&quot;&gt;&lt;font face=&quot;Courier New&quot;&gt;&lt;font style=&quot;background-color: initial;&quot;&gt;HSET actor:42&lt;/font&gt;&lt;/font&gt;&lt;/div&gt;&lt;div style=&quot;text-align: left; font-size: 12px;&quot;&gt;&lt;font face=&quot;Courier New&quot;&gt;&lt;font style=&quot;background-color: initial;&quot;&gt;&amp;nbsp; first Tom&lt;/font&gt;&lt;/font&gt;&lt;/div&gt;&lt;div style=&quot;text-align: left; font-size: 12px;&quot;&gt;&lt;font face=&quot;Courier New&quot;&gt;&lt;span style=&quot;background-color: initial;&quot;&gt;&amp;nbsp; last Hanks&lt;/span&gt;&lt;/font&gt;&lt;br&gt;&lt;/div&gt;" style="edgeLabel;html=1;align=center;verticalAlign=middle;resizable=0;points=[];fontFamily=Tahoma;fontSize=12;labelBackgroundColor=none;" parent="yuC8ztW3-dCmG9XeEZeN-14" vertex="1" connectable="0">
          <mxGeometry x="0.4786" y="-1" relative="1" as="geometry">
            <mxPoint x="60" y="-1" as="offset" />
          </mxGeometry>
        </mxCell>
      </root>
    </mxGraphModel>
  </diagram>
  <diagram name="replication-architecture" id="SzyLX5oUc3AnbnFBjnkx">
    <mxGraphModel dx="2092" dy="878" grid="1" gridSize="10" guides="1" tooltips="1" connect="1" arrows="1" fold="1" page="1" pageScale="1" pageWidth="850" pageHeight="1100" math="0" shadow="0">
      <root>
        <mxCell id="0" />
        <mxCell id="1" parent="0" />
        <mxCell id="BWhVouGPxx9xCM-iD3RN-2" value="Queue" style="strokeWidth=2;html=1;shape=mxgraph.flowchart.direct_data;whiteSpace=wrap;fontFamily=Tahoma;fillColor=#1ba1e2;fontColor=#ffffff;strokeColor=#006EAF;" parent="1" vertex="1">
          <mxGeometry x="271" y="382" width="89" height="54" as="geometry" />
        </mxCell>
        <mxCell id="BWhVouGPxx9xCM-iD3RN-5" value="Value Reader" style="shape=process;whiteSpace=wrap;html=1;backgroundOutline=1;strokeWidth=2;fontFamily=Tahoma;fillColor=#1ba1e2;fontColor=#ffffff;strokeColor=#006EAF;" parent="1" vertex="1">
          <mxGeometry x="81" y="450" width="120" height="30" as="geometry" />
        </mxCell>
        <mxCell id="BWhVouGPxx9xCM-iD3RN-6" value="Value Reader" style="shape=process;whiteSpace=wrap;html=1;backgroundOutline=1;strokeWidth=2;fontFamily=Tahoma;fillColor=#1ba1e2;fontColor=#ffffff;strokeColor=#006EAF;" parent="1" vertex="1">
          <mxGeometry x="81" y="394" width="120" height="30" as="geometry" />
        </mxCell>
        <mxCell id="BWhVouGPxx9xCM-iD3RN-7" value="Value Reader" style="shape=process;whiteSpace=wrap;html=1;backgroundOutline=1;strokeWidth=2;fontFamily=Tahoma;fillColor=#1ba1e2;fontColor=#ffffff;strokeColor=#006EAF;" parent="1" vertex="1">
          <mxGeometry x="81" y="337" width="120" height="30" as="geometry" />
        </mxCell>
        <mxCell id="BWhVouGPxx9xCM-iD3RN-8" value="" style="endArrow=classic;html=1;rounded=0;strokeWidth=2;entryX=0;entryY=0.5;entryDx=0;entryDy=0;fontFamily=Tahoma;" parent="1" source="BWhVouGPxx9xCM-iD3RN-32" target="BWhVouGPxx9xCM-iD3RN-7" edge="1">
          <mxGeometry width="50" height="50" relative="1" as="geometry">
            <mxPoint x="19" y="382.2582159624412" as="sourcePoint" />
            <mxPoint x="80" y="380" as="targetPoint" />
          </mxGeometry>
        </mxCell>
        <mxCell id="BWhVouGPxx9xCM-iD3RN-11" value="Key" style="edgeLabel;html=1;align=center;verticalAlign=middle;resizable=0;points=[];fontFamily=Tahoma;fontSize=12;labelBackgroundColor=none;" parent="BWhVouGPxx9xCM-iD3RN-8" vertex="1" connectable="0">
          <mxGeometry x="0.3434" y="-1" relative="1" as="geometry">
            <mxPoint x="-13" y="30" as="offset" />
          </mxGeometry>
        </mxCell>
        <mxCell id="BWhVouGPxx9xCM-iD3RN-9" value="" style="endArrow=classic;html=1;rounded=0;strokeWidth=2;fontFamily=Roboto;fontSource=https%3A%2F%2Ffonts.googleapis.com%2Fcss%3Ffamily%3DRoboto;" parent="1" source="BWhVouGPxx9xCM-iD3RN-32" target="BWhVouGPxx9xCM-iD3RN-6" edge="1">
          <mxGeometry width="50" height="50" relative="1" as="geometry">
            <mxPoint x="19" y="409" as="sourcePoint" />
            <mxPoint x="90" y="600" as="targetPoint" />
          </mxGeometry>
        </mxCell>
        <mxCell id="BWhVouGPxx9xCM-iD3RN-10" value="" style="endArrow=classic;html=1;rounded=0;strokeWidth=2;entryX=0;entryY=0.5;entryDx=0;entryDy=0;fontFamily=Roboto;fontSource=https%3A%2F%2Ffonts.googleapis.com%2Fcss%3Ffamily%3DRoboto;" parent="1" source="BWhVouGPxx9xCM-iD3RN-32" target="BWhVouGPxx9xCM-iD3RN-5" edge="1">
          <mxGeometry width="50" height="50" relative="1" as="geometry">
            <mxPoint x="19" y="432.39906103286376" as="sourcePoint" />
            <mxPoint x="80" y="440" as="targetPoint" />
          </mxGeometry>
        </mxCell>
        <mxCell id="BWhVouGPxx9xCM-iD3RN-14" value="" style="endArrow=classic;html=1;rounded=0;strokeWidth=2;exitX=1;exitY=0.5;exitDx=0;exitDy=0;fontFamily=Tahoma;" parent="1" source="BWhVouGPxx9xCM-iD3RN-7" target="BWhVouGPxx9xCM-iD3RN-2" edge="1">
          <mxGeometry width="50" height="50" relative="1" as="geometry">
            <mxPoint x="170" y="500" as="sourcePoint" />
            <mxPoint x="220" y="450" as="targetPoint" />
          </mxGeometry>
        </mxCell>
        <mxCell id="BWhVouGPxx9xCM-iD3RN-17" value="Key/Value" style="edgeLabel;html=1;align=center;verticalAlign=middle;resizable=0;points=[];fontFamily=Tahoma;fontSize=12;labelBackgroundColor=none;" parent="BWhVouGPxx9xCM-iD3RN-14" vertex="1" connectable="0">
          <mxGeometry x="-0.6437" y="2" relative="1" as="geometry">
            <mxPoint x="19" y="39" as="offset" />
          </mxGeometry>
        </mxCell>
        <mxCell id="BWhVouGPxx9xCM-iD3RN-15" value="" style="endArrow=classic;html=1;rounded=0;strokeWidth=2;fontFamily=Roboto;fontSource=https%3A%2F%2Ffonts.googleapis.com%2Fcss%3Ffamily%3DRoboto;" parent="1" target="BWhVouGPxx9xCM-iD3RN-2" edge="1">
          <mxGeometry width="50" height="50" relative="1" as="geometry">
            <mxPoint x="200" y="409" as="sourcePoint" />
            <mxPoint x="281" y="424" as="targetPoint" />
          </mxGeometry>
        </mxCell>
        <mxCell id="BWhVouGPxx9xCM-iD3RN-16" value="" style="endArrow=classic;html=1;rounded=0;strokeWidth=2;exitX=1;exitY=0.5;exitDx=0;exitDy=0;fontFamily=Roboto;fontSource=https%3A%2F%2Ffonts.googleapis.com%2Fcss%3Ffamily%3DRoboto;" parent="1" source="BWhVouGPxx9xCM-iD3RN-5" target="BWhVouGPxx9xCM-iD3RN-2" edge="1">
          <mxGeometry width="50" height="50" relative="1" as="geometry">
            <mxPoint x="211" y="419" as="sourcePoint" />
            <mxPoint x="281" y="424" as="targetPoint" />
          </mxGeometry>
        </mxCell>
        <mxCell id="BWhVouGPxx9xCM-iD3RN-22" value="Writer" style="shape=process;whiteSpace=wrap;html=1;backgroundOutline=1;strokeWidth=2;fontFamily=Tahoma;fillColor=#f0a30a;fontColor=#FFFFFF;strokeColor=#BD7000;" parent="1" vertex="1">
          <mxGeometry x="421" y="394" width="120" height="30" as="geometry" />
        </mxCell>
        <mxCell id="BWhVouGPxx9xCM-iD3RN-23" value="" style="endArrow=classic;html=1;rounded=0;strokeWidth=2;entryX=0;entryY=0.5;entryDx=0;entryDy=0;fontFamily=Roboto;fontSource=https%3A%2F%2Ffonts.googleapis.com%2Fcss%3Ffamily%3DRoboto;" parent="1" source="BWhVouGPxx9xCM-iD3RN-2" target="BWhVouGPxx9xCM-iD3RN-22" edge="1">
          <mxGeometry width="50" height="50" relative="1" as="geometry">
            <mxPoint x="380" y="300" as="sourcePoint" />
            <mxPoint x="431" y="365" as="targetPoint" />
          </mxGeometry>
        </mxCell>
        <mxCell id="BWhVouGPxx9xCM-iD3RN-32" value="Key&lt;br&gt;Reader" style="shape=process;whiteSpace=wrap;html=1;backgroundOutline=1;strokeWidth=2;fontFamily=Tahoma;fillColor=#1ba1e2;fontColor=#ffffff;strokeColor=#006EAF;" parent="1" vertex="1">
          <mxGeometry x="-80" y="384" width="90" height="50" as="geometry" />
        </mxCell>
        <mxCell id="BWhVouGPxx9xCM-iD3RN-33" value="Source&lt;br&gt;Redis" style="shape=cylinder3;whiteSpace=wrap;html=1;boundedLbl=1;backgroundOutline=1;size=15;fontSize=12;strokeWidth=2;fontFamily=Tahoma;" parent="1" vertex="1">
          <mxGeometry x="-201" y="369" width="60" height="80" as="geometry" />
        </mxCell>
        <mxCell id="BWhVouGPxx9xCM-iD3RN-34" value="" style="endArrow=classic;html=1;rounded=0;fontSize=12;strokeWidth=2;fontFamily=Roboto;fontSource=https%3A%2F%2Ffonts.googleapis.com%2Fcss%3Ffamily%3DRoboto;" parent="1" source="BWhVouGPxx9xCM-iD3RN-33" target="BWhVouGPxx9xCM-iD3RN-32" edge="1">
          <mxGeometry width="50" height="50" relative="1" as="geometry">
            <mxPoint x="-90" y="521" as="sourcePoint" />
            <mxPoint x="-40" y="471" as="targetPoint" />
          </mxGeometry>
        </mxCell>
        <mxCell id="BWhVouGPxx9xCM-iD3RN-35" value="&lt;font color=&quot;#4d4d4d&quot;&gt;Target&lt;br&gt;Redis&lt;/font&gt;" style="shape=cylinder3;whiteSpace=wrap;html=1;boundedLbl=1;backgroundOutline=1;size=15;fontSize=12;strokeWidth=2;fontFamily=Tahoma;" parent="1" vertex="1">
          <mxGeometry x="577" y="369" width="60" height="80" as="geometry" />
        </mxCell>
        <mxCell id="BWhVouGPxx9xCM-iD3RN-39" value="" style="rounded=0;whiteSpace=wrap;html=1;fontSize=12;fontColor=#FFFFFF;strokeWidth=2;fillColor=none;dashed=1;fontFamily=Tahoma;movable=1;resizable=1;rotatable=1;deletable=1;editable=1;locked=0;connectable=1;" parent="1" vertex="1">
          <mxGeometry x="-110" y="306" width="500" height="206" as="geometry" />
        </mxCell>
        <mxCell id="BWhVouGPxx9xCM-iD3RN-36" value="" style="endArrow=classic;html=1;rounded=0;fontSize=12;strokeWidth=2;exitX=1;exitY=0.5;exitDx=0;exitDy=0;fontFamily=Roboto;fontSource=https%3A%2F%2Ffonts.googleapis.com%2Fcss%3Ffamily%3DRoboto;" parent="1" source="BWhVouGPxx9xCM-iD3RN-22" target="BWhVouGPxx9xCM-iD3RN-35" edge="1">
          <mxGeometry width="50" height="50" relative="1" as="geometry">
            <mxPoint x="686" y="530" as="sourcePoint" />
            <mxPoint x="276" y="420" as="targetPoint" />
          </mxGeometry>
        </mxCell>
        <mxCell id="BWhVouGPxx9xCM-iD3RN-40" value="Reader" style="text;html=1;strokeColor=none;fillColor=none;align=left;verticalAlign=middle;whiteSpace=wrap;rounded=0;dashed=1;fontSize=12;fontColor=#000000;fontStyle=0;fontFamily=Tahoma;" parent="1" vertex="1">
          <mxGeometry x="-100" y="305" width="60" height="30" as="geometry" />
        </mxCell>
        <mxCell id="BWhVouGPxx9xCM-iD3RN-47" value="1" style="ellipse;aspect=fixed;strokeWidth=2;fontFamily=Tahoma;spacingBottom=0;spacingRight=0;strokeColor=none;fontSize=12;fontColor=#FFFFFF;fillColor=#000000;align=center;spacing=0;" parent="1" vertex="1">
          <mxGeometry x="-47" y="358" width="20" height="20" as="geometry" />
        </mxCell>
        <mxCell id="BWhVouGPxx9xCM-iD3RN-50" value="2" style="ellipse;aspect=fixed;strokeWidth=2;fontFamily=Tahoma;spacingBottom=0;spacingRight=0;strokeColor=none;fontSize=12;fontColor=#FFFFFF;fillColor=#000000;align=center;spacing=0;" parent="1" vertex="1">
          <mxGeometry x="131" y="311" width="20" height="20" as="geometry" />
        </mxCell>
        <mxCell id="BWhVouGPxx9xCM-iD3RN-51" value="3" style="ellipse;aspect=fixed;strokeWidth=2;fontFamily=Tahoma;spacingBottom=0;spacingRight=0;strokeColor=none;fontSize=12;fontColor=#FFFFFF;fillColor=#000000;align=center;spacing=0;" parent="1" vertex="1">
          <mxGeometry x="305.5" y="358" width="20" height="20" as="geometry" />
        </mxCell>
      </root>
    </mxGraphModel>
  </diagram>
  <diagram name="architecture" id="ODR4dkZ7I7xwBjQUQf57">
    <mxGraphModel dx="2092" dy="878" grid="1" gridSize="10" guides="1" tooltips="1" connect="1" arrows="1" fold="1" page="1" pageScale="1" pageWidth="850" pageHeight="1100" math="0" shadow="0">
      <root>
        <mxCell id="uztSmSV46VeNbiqf2ovN-0" />
        <mxCell id="uztSmSV46VeNbiqf2ovN-1" parent="uztSmSV46VeNbiqf2ovN-0" />
        <mxCell id="8OvxNgvBWE0soaQgyxwU-19" value="Source" style="shape=cylinder3;whiteSpace=wrap;html=1;boundedLbl=1;backgroundOutline=1;size=15;fontSize=12;strokeWidth=2;fontFamily=Tahoma;" parent="uztSmSV46VeNbiqf2ovN-1" vertex="1">
          <mxGeometry x="-150" y="371.63" width="60" height="80" as="geometry" />
        </mxCell>
        <mxCell id="8OvxNgvBWE0soaQgyxwU-21" value="&lt;font color=&quot;#4d4d4d&quot;&gt;Target&lt;/font&gt;" style="shape=cylinder3;whiteSpace=wrap;html=1;boundedLbl=1;backgroundOutline=1;size=15;fontSize=12;strokeWidth=2;fontFamily=Tahoma;" parent="uztSmSV46VeNbiqf2ovN-1" vertex="1">
          <mxGeometry x="650" y="371.63" width="60" height="80" as="geometry" />
        </mxCell>
        <mxCell id="8OvxNgvBWE0soaQgyxwU-83" value="" style="endArrow=none;html=1;rounded=0;fontFamily=Roboto;fontSource=https%3A%2F%2Ffonts.googleapis.com%2Fcss%3Ffamily%3DRoboto;fontSize=12;fontColor=#000000;strokeWidth=2;" parent="uztSmSV46VeNbiqf2ovN-1" source="8OvxNgvBWE0soaQgyxwU-19" target="8OvxNgvBWE0soaQgyxwU-64" edge="1">
          <mxGeometry width="50" height="50" relative="1" as="geometry">
            <mxPoint x="-160" y="398.695652173913" as="sourcePoint" />
            <mxPoint x="-20" y="350.608695652174" as="targetPoint" />
          </mxGeometry>
        </mxCell>
        <mxCell id="8OvxNgvBWE0soaQgyxwU-89" value="" style="group;fontFamily=Tahoma;" parent="uztSmSV46VeNbiqf2ovN-1" vertex="1" connectable="0">
          <mxGeometry x="-73.00000000000003" y="337" width="60" height="48" as="geometry" />
        </mxCell>
        <mxCell id="8OvxNgvBWE0soaQgyxwU-66" value="Batch" style="text;html=1;strokeColor=none;fillColor=none;align=center;verticalAlign=middle;whiteSpace=wrap;rounded=0;labelBackgroundColor=none;fontFamily=Tahoma;fontSize=12;fontColor=#000000;" parent="8OvxNgvBWE0soaQgyxwU-89" vertex="1">
          <mxGeometry y="18" width="60" height="30" as="geometry" />
        </mxCell>
        <mxCell id="8OvxNgvBWE0soaQgyxwU-64" value="" style="sketch=0;outlineConnect=0;fontColor=#232F3E;gradientColor=none;fillColor=#4D4D4D;strokeColor=none;dashed=0;verticalLabelPosition=bottom;verticalAlign=top;align=center;html=1;fontSize=12;fontStyle=0;aspect=fixed;pointerEvents=1;shape=mxgraph.aws4.iot_analytics_data_store;fontFamily=Roboto;fontSource=https%3A%2F%2Ffonts.googleapis.com%2Fcss%3Ffamily%3DRoboto;rotation=90;" parent="8OvxNgvBWE0soaQgyxwU-89" vertex="1">
          <mxGeometry x="17.32000000000002" y="-5.634999999999991" width="25.36" height="36.63" as="geometry" />
        </mxCell>
        <mxCell id="8OvxNgvBWE0soaQgyxwU-108" value="" style="group" parent="uztSmSV46VeNbiqf2ovN-1" vertex="1" connectable="0">
          <mxGeometry x="562" y="331" width="60" height="48" as="geometry" />
        </mxCell>
        <mxCell id="8OvxNgvBWE0soaQgyxwU-109" value="" style="sketch=0;outlineConnect=0;fontColor=#232F3E;gradientColor=none;fillColor=#4D4D4D;strokeColor=none;dashed=0;verticalLabelPosition=bottom;verticalAlign=top;align=center;html=1;fontSize=12;fontStyle=0;aspect=fixed;pointerEvents=1;shape=mxgraph.aws4.iot_analytics_data_store;fontFamily=Roboto;fontSource=https%3A%2F%2Ffonts.googleapis.com%2Fcss%3Ffamily%3DRoboto;rotation=90;" parent="8OvxNgvBWE0soaQgyxwU-108" vertex="1">
          <mxGeometry x="17.32000000000002" y="-5.634999999999991" width="25.36" height="36.63" as="geometry" />
        </mxCell>
        <mxCell id="8OvxNgvBWE0soaQgyxwU-110" value="" style="endArrow=classic;html=1;rounded=0;fontFamily=Roboto;fontSource=https%3A%2F%2Ffonts.googleapis.com%2Fcss%3Ffamily%3DRoboto;fontSize=12;fontColor=#000000;strokeWidth=2;startArrow=none;" parent="uztSmSV46VeNbiqf2ovN-1" source="8OvxNgvBWE0soaQgyxwU-109" target="8OvxNgvBWE0soaQgyxwU-21" edge="1">
          <mxGeometry width="50" height="50" relative="1" as="geometry">
            <mxPoint x="1175.3200000000002" y="342.11" as="sourcePoint" />
            <mxPoint x="580" y="460" as="targetPoint" />
          </mxGeometry>
        </mxCell>
        <mxCell id="8OvxNgvBWE0soaQgyxwU-134" value="" style="group;fillColor=none;container=0;strokeColor=default;dashed=1;strokeWidth=2;" parent="uztSmSV46VeNbiqf2ovN-1" vertex="1" connectable="0">
          <mxGeometry y="259" width="560" height="81.63" as="geometry" />
        </mxCell>
        <mxCell id="8OvxNgvBWE0soaQgyxwU-137" value="&lt;font color=&quot;#4d4d4d&quot;&gt;Thread&lt;/font&gt;" style="text;html=1;strokeColor=none;fillColor=none;align=left;verticalAlign=bottom;whiteSpace=wrap;rounded=0;dashed=1;labelBackgroundColor=none;fontFamily=Tahoma;fontSize=12;fontColor=#FFFFFF;" parent="uztSmSV46VeNbiqf2ovN-1" vertex="1">
          <mxGeometry y="229" width="60" height="30" as="geometry" />
        </mxCell>
        <mxCell id="8OvxNgvBWE0soaQgyxwU-33" value="Reader" style="shape=process;whiteSpace=wrap;html=1;backgroundOutline=1;fontFamily=Tahoma;fontSize=12;fontColor=#ffffff;strokeWidth=2;fillColor=#1ba1e2;strokeColor=#006EAF;" parent="uztSmSV46VeNbiqf2ovN-1" vertex="1">
          <mxGeometry x="19" y="271" width="120" height="60" as="geometry" />
        </mxCell>
        <mxCell id="8OvxNgvBWE0soaQgyxwU-68" value="Processor" style="shape=process;whiteSpace=wrap;html=1;backgroundOutline=1;fontFamily=Tahoma;fontSize=12;fontColor=#ffffff;strokeWidth=2;fillColor=#647687;strokeColor=#314354;" parent="uztSmSV46VeNbiqf2ovN-1" vertex="1">
          <mxGeometry x="223" y="271" width="120" height="60" as="geometry" />
        </mxCell>
        <mxCell id="8OvxNgvBWE0soaQgyxwU-70" value="Writer" style="shape=process;whiteSpace=wrap;html=1;backgroundOutline=1;fontFamily=Tahoma;fontSize=12;fontColor=#FFFFFF;strokeWidth=2;fillColor=#f0a30a;strokeColor=#BD7000;" parent="uztSmSV46VeNbiqf2ovN-1" vertex="1">
          <mxGeometry x="419" y="271" width="120" height="60" as="geometry" />
        </mxCell>
        <mxCell id="8OvxNgvBWE0soaQgyxwU-93" value="" style="endArrow=none;html=1;rounded=0;fontFamily=Roboto;fontSource=https%3A%2F%2Ffonts.googleapis.com%2Fcss%3Ffamily%3DRoboto;fontSize=12;fontColor=#000000;strokeWidth=2;" parent="uztSmSV46VeNbiqf2ovN-1" source="8OvxNgvBWE0soaQgyxwU-33" target="8OvxNgvBWE0soaQgyxwU-96" edge="1">
          <mxGeometry width="50" height="50" relative="1" as="geometry">
            <mxPoint x="89" y="488.98411487018086" as="sourcePoint" />
            <mxPoint x="229" y="440.718695652174" as="targetPoint" />
          </mxGeometry>
        </mxCell>
        <mxCell id="8OvxNgvBWE0soaQgyxwU-94" value="" style="group" parent="uztSmSV46VeNbiqf2ovN-1" vertex="1" connectable="0">
          <mxGeometry x="148.99999999999997" y="288" width="60" height="48" as="geometry" />
        </mxCell>
        <mxCell id="8OvxNgvBWE0soaQgyxwU-96" value="" style="sketch=0;outlineConnect=0;fontColor=#232F3E;gradientColor=none;fillColor=#4D4D4D;strokeColor=none;dashed=0;verticalLabelPosition=bottom;verticalAlign=top;align=center;html=1;fontSize=12;fontStyle=0;aspect=fixed;pointerEvents=1;shape=mxgraph.aws4.iot_analytics_data_store;fontFamily=Roboto;fontSource=https%3A%2F%2Ffonts.googleapis.com%2Fcss%3Ffamily%3DRoboto;rotation=90;" parent="8OvxNgvBWE0soaQgyxwU-94" vertex="1">
          <mxGeometry x="17.32000000000002" y="-5.634999999999991" width="25.36" height="36.63" as="geometry" />
        </mxCell>
        <mxCell id="8OvxNgvBWE0soaQgyxwU-97" value="" style="endArrow=classic;html=1;rounded=0;fontFamily=Roboto;fontSource=https%3A%2F%2Ffonts.googleapis.com%2Fcss%3Ffamily%3DRoboto;fontSize=12;fontColor=#000000;strokeWidth=2;startArrow=none;" parent="uztSmSV46VeNbiqf2ovN-1" source="8OvxNgvBWE0soaQgyxwU-96" target="8OvxNgvBWE0soaQgyxwU-68" edge="1">
          <mxGeometry width="50" height="50" relative="1" as="geometry">
            <mxPoint x="767.32" y="178.11" as="sourcePoint" />
            <mxPoint x="229" y="441.0015211970075" as="targetPoint" />
          </mxGeometry>
        </mxCell>
        <mxCell id="8OvxNgvBWE0soaQgyxwU-102" value="" style="endArrow=none;html=1;rounded=0;fontFamily=Roboto;fontSource=https%3A%2F%2Ffonts.googleapis.com%2Fcss%3Ffamily%3DRoboto;fontSize=12;fontColor=#000000;strokeWidth=2;" parent="uztSmSV46VeNbiqf2ovN-1" source="8OvxNgvBWE0soaQgyxwU-68" target="8OvxNgvBWE0soaQgyxwU-104" edge="1">
          <mxGeometry width="50" height="50" relative="1" as="geometry">
            <mxPoint x="380" y="367.2080000000003" as="sourcePoint" />
            <mxPoint x="470" y="504.718695652174" as="targetPoint" />
          </mxGeometry>
        </mxCell>
        <mxCell id="8OvxNgvBWE0soaQgyxwU-103" value="" style="group" parent="uztSmSV46VeNbiqf2ovN-1" vertex="1" connectable="0">
          <mxGeometry x="349" y="288" width="60" height="48" as="geometry" />
        </mxCell>
        <mxCell id="8OvxNgvBWE0soaQgyxwU-104" value="" style="sketch=0;outlineConnect=0;fontColor=#232F3E;gradientColor=none;fillColor=#4D4D4D;strokeColor=none;dashed=0;verticalLabelPosition=bottom;verticalAlign=top;align=center;html=1;fontSize=12;fontStyle=0;aspect=fixed;pointerEvents=1;shape=mxgraph.aws4.iot_analytics_data_store;fontFamily=Roboto;fontSource=https%3A%2F%2Ffonts.googleapis.com%2Fcss%3Ffamily%3DRoboto;rotation=90;" parent="8OvxNgvBWE0soaQgyxwU-103" vertex="1">
          <mxGeometry x="17.32000000000002" y="-5.634999999999991" width="25.36" height="36.63" as="geometry" />
        </mxCell>
        <mxCell id="8OvxNgvBWE0soaQgyxwU-105" value="" style="endArrow=classic;html=1;rounded=0;fontFamily=Roboto;fontSource=https%3A%2F%2Ffonts.googleapis.com%2Fcss%3Ffamily%3DRoboto;fontSize=12;fontColor=#000000;strokeWidth=2;startArrow=none;" parent="uztSmSV46VeNbiqf2ovN-1" source="8OvxNgvBWE0soaQgyxwU-104" target="8OvxNgvBWE0soaQgyxwU-70" edge="1">
          <mxGeometry width="50" height="50" relative="1" as="geometry">
            <mxPoint x="1008.32" y="242.11" as="sourcePoint" />
            <mxPoint x="464" y="367.12307692307695" as="targetPoint" />
          </mxGeometry>
        </mxCell>
        <mxCell id="8OvxNgvBWE0soaQgyxwU-67" value="" style="endArrow=classic;html=1;rounded=0;fontFamily=Roboto;fontSource=https%3A%2F%2Ffonts.googleapis.com%2Fcss%3Ffamily%3DRoboto;fontSize=12;fontColor=#000000;strokeWidth=2;startArrow=none;entryX=0;entryY=0.5;entryDx=0;entryDy=0;" parent="uztSmSV46VeNbiqf2ovN-1" source="8OvxNgvBWE0soaQgyxwU-64" target="8OvxNgvBWE0soaQgyxwU-33" edge="1">
          <mxGeometry width="50" height="50" relative="1" as="geometry">
            <mxPoint x="-51.684999999999945" y="328.70931599999994" as="sourcePoint" />
            <mxPoint x="568.32" y="16" as="targetPoint" />
          </mxGeometry>
        </mxCell>
        <mxCell id="8OvxNgvBWE0soaQgyxwU-107" value="" style="endArrow=none;html=1;rounded=0;fontFamily=Roboto;fontSource=https%3A%2F%2Ffonts.googleapis.com%2Fcss%3Ffamily%3DRoboto;fontSize=12;fontColor=#000000;strokeWidth=2;exitX=1;exitY=0.5;exitDx=0;exitDy=0;" parent="uztSmSV46VeNbiqf2ovN-1" source="8OvxNgvBWE0soaQgyxwU-70" target="8OvxNgvBWE0soaQgyxwU-109" edge="1">
          <mxGeometry width="50" height="50" relative="1" as="geometry">
            <mxPoint x="510" y="400.8000000000002" as="sourcePoint" />
            <mxPoint x="637" y="604.718695652174" as="targetPoint" />
          </mxGeometry>
        </mxCell>
        <mxCell id="szU9DxH52JEA61ozMafs-32" value="" style="group" parent="uztSmSV46VeNbiqf2ovN-1" vertex="1" connectable="0">
          <mxGeometry y="340" width="560" height="112.37" as="geometry" />
        </mxCell>
        <mxCell id="szU9DxH52JEA61ozMafs-17" value="&lt;font color=&quot;#4d4d4d&quot;&gt;Thread&lt;/font&gt;" style="text;html=1;strokeColor=none;fillColor=none;align=left;verticalAlign=bottom;whiteSpace=wrap;rounded=0;dashed=1;labelBackgroundColor=none;fontFamily=Tahoma;fontSize=12;fontColor=#FFFFFF;" parent="szU9DxH52JEA61ozMafs-32" vertex="1">
          <mxGeometry width="60" height="30" as="geometry" />
        </mxCell>
        <mxCell id="szU9DxH52JEA61ozMafs-31" value="" style="group" parent="szU9DxH52JEA61ozMafs-32" vertex="1" connectable="0">
          <mxGeometry y="32.370000000000005" width="560" height="80" as="geometry" />
        </mxCell>
        <mxCell id="szU9DxH52JEA61ozMafs-15" value="" style="rounded=0;whiteSpace=wrap;html=1;labelBackgroundColor=none;fontFamily=Roboto;fontSource=https%3A%2F%2Ffonts.googleapis.com%2Fcss%3Ffamily%3DRoboto;fontSize=12;fontColor=#FFFFFF;strokeWidth=2;fillColor=none;dashed=1;" parent="szU9DxH52JEA61ozMafs-31" vertex="1">
          <mxGeometry width="560" height="80" as="geometry" />
        </mxCell>
        <mxCell id="szU9DxH52JEA61ozMafs-19" value="Reader" style="shape=process;whiteSpace=wrap;html=1;backgroundOutline=1;fontFamily=Tahoma;fontSize=12;strokeWidth=2;dashed=1;" parent="szU9DxH52JEA61ozMafs-31" vertex="1">
          <mxGeometry x="19" y="10" width="120" height="60" as="geometry" />
        </mxCell>
        <mxCell id="szU9DxH52JEA61ozMafs-20" value="Processor" style="shape=process;whiteSpace=wrap;html=1;backgroundOutline=1;fontFamily=Tahoma;fontSize=12;strokeWidth=2;dashed=1;" parent="szU9DxH52JEA61ozMafs-31" vertex="1">
          <mxGeometry x="223" y="10" width="120" height="60" as="geometry" />
        </mxCell>
        <mxCell id="szU9DxH52JEA61ozMafs-23" style="edgeStyle=orthogonalEdgeStyle;rounded=0;orthogonalLoop=1;jettySize=auto;html=1;fontFamily=Roboto;fontSource=https%3A%2F%2Ffonts.googleapis.com%2Fcss%3Ffamily%3DRoboto;fontSize=12;fontColor=#4D4D4D;strokeWidth=2;dashed=1;" parent="szU9DxH52JEA61ozMafs-31" source="szU9DxH52JEA61ozMafs-19" target="szU9DxH52JEA61ozMafs-20" edge="1">
          <mxGeometry relative="1" as="geometry" />
        </mxCell>
        <mxCell id="szU9DxH52JEA61ozMafs-21" value="Writer" style="shape=process;whiteSpace=wrap;html=1;backgroundOutline=1;fontFamily=Tahoma;fontSize=12;strokeWidth=2;dashed=1;" parent="szU9DxH52JEA61ozMafs-31" vertex="1">
          <mxGeometry x="419" y="10" width="120" height="60" as="geometry" />
        </mxCell>
        <mxCell id="szU9DxH52JEA61ozMafs-24" style="edgeStyle=orthogonalEdgeStyle;rounded=0;orthogonalLoop=1;jettySize=auto;html=1;dashed=1;fontFamily=Roboto;fontSource=https%3A%2F%2Ffonts.googleapis.com%2Fcss%3Ffamily%3DRoboto;fontSize=12;fontColor=#4D4D4D;strokeWidth=2;" parent="szU9DxH52JEA61ozMafs-31" source="szU9DxH52JEA61ozMafs-20" target="szU9DxH52JEA61ozMafs-21" edge="1">
          <mxGeometry relative="1" as="geometry" />
        </mxCell>
        <mxCell id="szU9DxH52JEA61ozMafs-33" value="" style="group" parent="uztSmSV46VeNbiqf2ovN-1" vertex="1" connectable="0">
          <mxGeometry y="452.37" width="560" height="110" as="geometry" />
        </mxCell>
        <mxCell id="szU9DxH52JEA61ozMafs-18" value="&lt;font color=&quot;#4d4d4d&quot;&gt;Thread&lt;/font&gt;" style="text;html=1;strokeColor=none;fillColor=none;align=left;verticalAlign=bottom;whiteSpace=wrap;rounded=0;dashed=1;labelBackgroundColor=none;fontFamily=Tahoma;fontSize=12;fontColor=#FFFFFF;" parent="szU9DxH52JEA61ozMafs-33" vertex="1">
          <mxGeometry width="60" height="30" as="geometry" />
        </mxCell>
        <mxCell id="szU9DxH52JEA61ozMafs-30" value="" style="group" parent="szU9DxH52JEA61ozMafs-33" vertex="1" connectable="0">
          <mxGeometry y="30" width="560" height="80" as="geometry" />
        </mxCell>
        <mxCell id="szU9DxH52JEA61ozMafs-13" value="" style="rounded=0;whiteSpace=wrap;html=1;labelBackgroundColor=none;fontFamily=Roboto;fontSource=https%3A%2F%2Ffonts.googleapis.com%2Fcss%3Ffamily%3DRoboto;fontSize=12;fontColor=#FFFFFF;strokeWidth=2;fillColor=none;dashed=1;" parent="szU9DxH52JEA61ozMafs-30" vertex="1">
          <mxGeometry width="560" height="80" as="geometry" />
        </mxCell>
        <mxCell id="szU9DxH52JEA61ozMafs-26" value="Reader" style="shape=process;whiteSpace=wrap;html=1;backgroundOutline=1;fontFamily=Tahoma;fontSize=12;strokeWidth=2;dashed=1;" parent="szU9DxH52JEA61ozMafs-30" vertex="1">
          <mxGeometry x="19" y="10" width="120" height="60" as="geometry" />
        </mxCell>
        <mxCell id="szU9DxH52JEA61ozMafs-28" value="Processor" style="shape=process;whiteSpace=wrap;html=1;backgroundOutline=1;fontFamily=Tahoma;fontSize=12;strokeWidth=2;dashed=1;" parent="szU9DxH52JEA61ozMafs-30" vertex="1">
          <mxGeometry x="223" y="10" width="120" height="60" as="geometry" />
        </mxCell>
        <mxCell id="szU9DxH52JEA61ozMafs-25" style="edgeStyle=orthogonalEdgeStyle;rounded=0;orthogonalLoop=1;jettySize=auto;html=1;fontFamily=Roboto;fontSource=https%3A%2F%2Ffonts.googleapis.com%2Fcss%3Ffamily%3DRoboto;fontSize=12;fontColor=#4D4D4D;strokeWidth=2;dashed=1;" parent="szU9DxH52JEA61ozMafs-30" source="szU9DxH52JEA61ozMafs-26" target="szU9DxH52JEA61ozMafs-28" edge="1">
          <mxGeometry relative="1" as="geometry" />
        </mxCell>
        <mxCell id="szU9DxH52JEA61ozMafs-29" value="Writer" style="shape=process;whiteSpace=wrap;html=1;backgroundOutline=1;fontFamily=Tahoma;fontSize=12;strokeWidth=2;dashed=1;" parent="szU9DxH52JEA61ozMafs-30" vertex="1">
          <mxGeometry x="419" y="10" width="120" height="60" as="geometry" />
        </mxCell>
        <mxCell id="szU9DxH52JEA61ozMafs-27" style="edgeStyle=orthogonalEdgeStyle;rounded=0;orthogonalLoop=1;jettySize=auto;html=1;dashed=1;fontFamily=Roboto;fontSource=https%3A%2F%2Ffonts.googleapis.com%2Fcss%3Ffamily%3DRoboto;fontSize=12;fontColor=#4D4D4D;strokeWidth=2;" parent="szU9DxH52JEA61ozMafs-30" source="szU9DxH52JEA61ozMafs-28" target="szU9DxH52JEA61ozMafs-29" edge="1">
          <mxGeometry relative="1" as="geometry" />
        </mxCell>
        <mxCell id="8OvxNgvBWE0soaQgyxwU-122" value="" style="endArrow=classic;html=1;rounded=0;fontFamily=Roboto;fontSource=https%3A%2F%2Ffonts.googleapis.com%2Fcss%3Ffamily%3DRoboto;fontSize=12;fontColor=#FFFFFF;strokeWidth=2;entryX=0;entryY=0.5;entryDx=0;entryDy=0;" parent="uztSmSV46VeNbiqf2ovN-1" source="8OvxNgvBWE0soaQgyxwU-19" target="szU9DxH52JEA61ozMafs-19" edge="1">
          <mxGeometry width="50" height="50" relative="1" as="geometry">
            <mxPoint x="300" y="460" as="sourcePoint" />
            <mxPoint x="-31" y="402" as="targetPoint" />
          </mxGeometry>
        </mxCell>
        <mxCell id="8OvxNgvBWE0soaQgyxwU-129" value="" style="endArrow=classic;html=1;rounded=0;fontFamily=Roboto;fontSource=https%3A%2F%2Ffonts.googleapis.com%2Fcss%3Ffamily%3DRoboto;fontSize=12;fontColor=#FFFFFF;strokeWidth=2;entryX=0;entryY=0.5;entryDx=0;entryDy=0;" parent="uztSmSV46VeNbiqf2ovN-1" source="8OvxNgvBWE0soaQgyxwU-19" target="szU9DxH52JEA61ozMafs-26" edge="1">
          <mxGeometry width="50" height="50" relative="1" as="geometry">
            <mxPoint x="-110" y="428.5" as="sourcePoint" />
            <mxPoint x="-21" y="525" as="targetPoint" />
          </mxGeometry>
        </mxCell>
        <mxCell id="8OvxNgvBWE0soaQgyxwU-130" value="" style="endArrow=classic;html=1;rounded=0;fontFamily=Roboto;fontSource=https%3A%2F%2Ffonts.googleapis.com%2Fcss%3Ffamily%3DRoboto;fontSize=12;fontColor=#000000;strokeWidth=2;startArrow=none;exitX=1;exitY=0.5;exitDx=0;exitDy=0;" parent="uztSmSV46VeNbiqf2ovN-1" source="szU9DxH52JEA61ozMafs-29" target="8OvxNgvBWE0soaQgyxwU-21" edge="1">
          <mxGeometry width="50" height="50" relative="1" as="geometry">
            <mxPoint x="499" y="525" as="sourcePoint" />
            <mxPoint x="600" y="430.58333333333326" as="targetPoint" />
          </mxGeometry>
        </mxCell>
        <mxCell id="8OvxNgvBWE0soaQgyxwU-123" value="" style="endArrow=classic;html=1;rounded=0;fontFamily=Roboto;fontSource=https%3A%2F%2Ffonts.googleapis.com%2Fcss%3Ffamily%3DRoboto;fontSize=12;fontColor=#000000;strokeWidth=2;startArrow=none;exitX=1;exitY=0.5;exitDx=0;exitDy=0;" parent="uztSmSV46VeNbiqf2ovN-1" source="szU9DxH52JEA61ozMafs-21" target="8OvxNgvBWE0soaQgyxwU-21" edge="1">
          <mxGeometry width="50" height="50" relative="1" as="geometry">
            <mxPoint x="509" y="432" as="sourcePoint" />
            <mxPoint x="606" y="480" as="targetPoint" />
          </mxGeometry>
        </mxCell>
      </root>
    </mxGraphModel>
  </diagram>
</mxfile>
